<?xml version="1.0" encoding="UTF-8" standalone="no"?>
<svg
   xmlns:dc="http://purl.org/dc/elements/1.1/"
   xmlns:cc="http://creativecommons.org/ns#"
   xmlns:rdf="http://www.w3.org/1999/02/22-rdf-syntax-ns#"
   xmlns:svg="http://www.w3.org/2000/svg"
   xmlns="http://www.w3.org/2000/svg"
   xmlns:sodipodi="http://sodipodi.sourceforge.net/DTD/sodipodi-0.dtd"
   xmlns:inkscape="http://www.inkscape.org/namespaces/inkscape"
   version="1.1"
   x="0px"
   y="0px"
   viewBox="0 0 400 500"
   style="enable-background:new 0 0 400 400;"
   xml:space="preserve"
   id="svg12"
   sodipodi:docname="download.svg"
   inkscape:version="0.92.3 (2405546, 2018-03-11)"><metadata
     id="metadata18"><rdf:RDF><cc:Work
         rdf:about=""><dc:format>image/svg+xml</dc:format><dc:type
           rdf:resource="http://purl.org/dc/dcmitype/StillImage" /></cc:Work></rdf:RDF></metadata><defs
     id="defs16" /><sodipodi:namedview
     pagecolor="#ffffff"
     bordercolor="#666666"
     borderopacity="1"
     objecttolerance="10"
     gridtolerance="10"
     guidetolerance="10"
     inkscape:pageopacity="0"
     inkscape:pageshadow="2"
     inkscape:window-width="1920"
     inkscape:window-height="1017"
     id="namedview14"
     showgrid="false"
     inkscape:zoom="7.552"
     inkscape:cx="68.784774"
     inkscape:cy="45.675487"
     inkscape:window-x="-8"
     inkscape:window-y="-8"
     inkscape:window-maximized="1"
     inkscape:current-layer="svg12" /><g
     id="g6"><path
       d="M358.8,272.2v70.3c0,1.4-0.2,2.7-0.5,3.9v0c0,0,0,0,0,0c-1.4,6.9-7.5,12.1-14.7,12.1H56.3c-7.7,0-14.1-5.9-14.9-13.4   c-0.2-0.9-0.2-1.7-0.2-2.7v-70.3c0-8.3,6.8-15,15-15c4.1,0,7.9,1.7,10.6,4.4c2.7,2.7,4.4,6.5,4.4,10.6v56.3h257.7v-56.3   c0-8.3,6.8-15,15-15c4.1,0,7.9,1.7,10.6,4.4C357.1,264.3,358.8,268.1,358.8,272.2z"
       id="path2" /><path
       d="M286.5,201.8l-73.7,73.7c-0.1,0.2-0.3,0.3-0.4,0.4c-2.7,2.7-6.2,4.4-9.7,4.9c-0.3,0-0.6,0.1-0.9,0.1   c-0.6,0.1-1.2,0.1-1.8,0.1h0l-1.7-0.1c-0.3,0-0.6-0.1-0.9-0.1c-3.6-0.5-7-2.2-9.7-4.9c-0.1-0.1-0.3-0.3-0.4-0.4l-73.7-73.7   c-3.4-3.4-5.1-7.9-5.1-12.4c0-4.5,1.7-9,5.1-12.4c6.8-6.8,17.9-6.8,24.8,0l44.3,44.3V59c0-9.6,7.9-17.5,17.5-17.5   c4.8,0,9.2,2,12.4,5.1c3.2,3.2,5.1,7.5,5.1,12.4v162.3l44.3-44.3c6.8-6.8,17.9-6.8,24.8,0C293.3,183.9,293.3,195,286.5,201.8z"
       id="path4" /></g></svg>